# xmcd
#
# Track frame offsets: 
#        150
#        22695
#        44871
#        65779
#
# Disc length: 1164 seconds
#
# Revision: 0
# Processed by: cddbd v1.5.1PL0 Copyright (c) Steve Scherf et al.
# Submitted via: ExactAudioCopy v0.95a5
#
DISCID=33048a04
DTITLE=Sugarland - Promo
DYEAR=1900
DGENRE=Country
TTITLE0=Sugarland
TTITLE1=Turnin' Blue
TTITLE2=Baby Girl
TTITLE3=50 Cent Lovin'
EXTD=
EXTT0=
EXTT1=
EXTT2=
EXTT3=
PLAYORDER=
